# xmcd
#
# Track frame offsets:
#	150
#	20555
#	40940
#	54967
#	77320
#
# Disc length: 1328 seconds
#
# Revision: 1
# Processed by: cddbd v1.5PL3 Copyright (c) Steve Scherf et al.
# Submitted via: CDex 1.50Beta5
#
DISCID=2d052e05
DTITLE=音羽しのぶ - しのぶの渡り鳥
DYEAR=2001
DGENRE=Folk
TTITLE0=しのぶの渡り鳥
TTITLE1=しのぶの渡り鳥オリジナル・カラオケ
TTITLE2=しのぶの渡り鳥一般用カラオケ
TTITLE3=うす紅
TTITLE4=うす紅オリジナル・カラオケ
EXTD=
EXTT0=
EXTT1=
EXTT2=
EXTT3=
EXTT4=
PLAYORDER=
